<?xml version="1.0" encoding="UTF-8"?><svg id="a" xmlns="http://www.w3.org/2000/svg" viewBox="0 0 474.61 876.89"><defs><style>.b{fill:#003c98;}</style></defs><path class="b" d="M240.8,.34c7.53,63.69,15.12,127.38,22.57,191.09,7.89,67.49,15.81,134.97,23.29,202.51,1.05,9.51,5.06,13.23,14.13,15.76,106.3,29.63,179.06,129.93,173.52,238.41-5.82,113.84-86.47,206.02-197.15,225.34-121.83,21.26-241.91-57.72-270.49-177.9-29.19-122.75,39.81-246.27,159.01-283.29,12.68-3.94,17.53-9.25,19.32-22.65,17.18-128.6,35.24-257.07,53.08-385.58,.19-1.36,.66-2.67,1-4.01l1.72,.34Z"/></svg>